<svg width="1475" height="79" viewBox="0 0 1475 79" fill="none" xmlns="http://www.w3.org/2000/svg">
<path d="M0 39.5C0 17.6848 17.6848 0 39.5 0H1435.5C1457.32 0 1475 17.6848 1475 39.5V39.5C1475 61.3152 1457.32 79 1435.5 79H39.5C17.6847 79 0 61.3152 0 39.5V39.5Z" fill="#34CC54"/>
<path d="M39.5 0.5H1435.5C1457.04 0.5 1474.5 17.9609 1474.5 39.5C1474.5 61.0391 1457.04 78.5 1435.5 78.5H39.5C17.9609 78.5 0.5 61.0391 0.5 39.5C0.5 17.9609 17.9609 0.5 39.5 0.5Z" stroke="#256558" stroke-opacity="0.87"/>
</svg>
