<svg width="22" height="22" viewBox="0 0 22 22" fill="none" xmlns="http://www.w3.org/2000/svg">
<path d="M20.9409 10.418C20.9445 11.8071 20.62 13.1774 19.9937 14.4174C19.2511 15.9032 18.1095 17.1529 16.6968 18.0265C15.2841 18.9002 13.656 19.3633 11.995 19.3639C10.6059 19.3675 9.23559 19.043 7.99568 18.4167L1.99668 20.4164L3.99634 14.4174C3.37006 13.1774 3.04551 11.8071 3.04913 10.418C3.04977 8.75699 3.51286 7.12893 4.38651 5.71622C5.26016 4.30351 6.50988 3.16193 7.99568 2.41935C9.23559 1.79306 10.6059 1.46852 11.995 1.47214H12.5212C14.7149 1.59316 16.7869 2.51908 18.3404 4.07261C19.894 5.62614 20.8199 7.6981 20.9409 9.89179V10.418Z" stroke="black" stroke-width="2.10491" stroke-linecap="round" stroke-linejoin="round"/>
</svg>
