<svg width="50" height="50" viewBox="0 0 50 50" fill="none" xmlns="http://www.w3.org/2000/svg">
<path d="M46.062 22.1434L27.7662 3.8476C26.2432 2.32464 23.5628 2.30434 22.0196 3.8476L3.74406 22.1231C2.16018 23.707 2.16018 26.2656 3.74406 27.8494L22.0196 46.125C22.8115 46.9169 23.8471 47.3027 24.8827 47.3027C25.9183 47.3027 26.954 46.9169 27.7459 46.125L46.0011 27.8697C47.6053 26.3265 47.6256 23.7679 46.062 22.1434ZM24.903 43.2618L6.62753 24.9863L24.903 6.71076L43.1786 24.9863L24.903 43.2618ZM16.7603 22.976V31.0984H20.8215V25.0066H28.944V30.0831L36.0511 22.976L28.944 15.8688V20.9454H18.7909C17.6741 20.9454 16.7603 21.8591 16.7603 22.976Z" fill="#5F6368"/>
</svg>
