<svg width="60" height="60" viewBox="0 0 60 60" fill="none" xmlns="http://www.w3.org/2000/svg">
<path fill-rule="evenodd" clip-rule="evenodd" d="M28.2321 8.23245C28.7009 7.76378 29.3366 7.50049 29.9996 7.50049C30.6625 7.50049 31.2982 7.76378 31.7671 8.23245L46.7671 23.2325L51.7671 28.2325C52.2224 28.704 52.4744 29.3355 52.4687 29.991C52.463 30.6464 52.2001 31.2735 51.7366 31.737C51.2731 32.2005 50.646 32.4634 49.9906 32.4691C49.3351 32.4748 48.7036 32.2228 48.232 31.7675L47.4996 31.035V47.5C47.4996 48.826 46.9728 50.0978 46.0351 51.0355C45.0974 51.9732 43.8256 52.5 42.4996 52.5H34.9996C34.3365 52.5 33.7006 52.2366 33.2318 51.7677C32.7629 51.2989 32.4996 50.663 32.4996 50V42.5H27.4996V50C27.4996 50.663 27.2362 51.2989 26.7673 51.7677C26.2985 52.2366 25.6626 52.5 24.9996 52.5H17.4996C16.1735 52.5 14.9017 51.9732 13.964 51.0355C13.0263 50.0978 12.4996 48.826 12.4996 47.5V31.035L11.7671 31.7675C11.2955 32.2228 10.664 32.4748 10.0085 32.4691C9.35306 32.4634 8.72603 32.2005 8.26251 31.737C7.79899 31.2735 7.53606 30.6464 7.53037 29.991C7.52467 29.3355 7.77666 28.704 8.23205 28.2325L13.2321 23.2325L28.2321 8.23245Z" fill="black"/>
</svg>
