<svg width="80" height="80" viewBox="0 0 80 80" fill="none" xmlns="http://www.w3.org/2000/svg">
<path fill-rule="evenodd" clip-rule="evenodd" d="M38.2694 11.6427C38.8945 11.0178 39.7422 10.6667 40.626 10.6667C41.5099 10.6667 42.3576 11.0178 42.9827 11.6427L62.9827 31.6427L69.6494 38.3094C70.2566 38.938 70.5925 39.78 70.5849 40.654C70.5773 41.528 70.2268 42.3641 69.6088 42.9821C68.9907 43.6001 68.1547 43.9507 67.2807 43.9583C66.4067 43.9659 65.5647 43.6299 64.936 43.0227L63.9594 42.046V63.9994C63.9594 65.7675 63.257 67.4632 62.0067 68.7134C60.7565 69.9637 59.0608 70.666 57.2927 70.666H47.2927C46.4086 70.666 45.5608 70.3148 44.9357 69.6897C44.3106 69.0646 43.9594 68.2168 43.9594 67.3327V57.3327H37.2927V67.3327C37.2927 68.2168 36.9415 69.0646 36.3164 69.6897C35.6913 70.3148 34.8434 70.666 33.9594 70.666H23.9594C22.1913 70.666 20.4956 69.9637 19.2453 68.7134C17.9951 67.4632 17.2927 65.7675 17.2927 63.9994V42.046L16.316 43.0227C15.6874 43.6299 14.8453 43.9659 13.9714 43.9583C13.0974 43.9507 12.2613 43.6001 11.6433 42.9821C11.0253 42.3641 10.6747 41.528 10.6671 40.654C10.6595 39.78 10.9955 38.938 11.6027 38.3094L18.2694 31.6427L38.2694 11.6427Z" fill="black"/>
</svg>
