<svg width="21" height="23" viewBox="0 0 21 23" fill="none" xmlns="http://www.w3.org/2000/svg">
<path d="M16.7034 7.58061C18.3688 7.58061 19.7189 6.23054 19.7189 4.56515C19.7189 2.89975 18.3688 1.54968 16.7034 1.54968C15.038 1.54968 13.688 2.89975 13.688 4.56515C13.688 6.23054 15.038 7.58061 16.7034 7.58061Z" stroke="black" stroke-width="2.01031" stroke-linecap="round" stroke-linejoin="round"/>
<path d="M4.64156 14.6167C6.30696 14.6167 7.65703 13.2667 7.65703 11.6013C7.65703 9.93589 6.30696 8.58582 4.64156 8.58582C2.97617 8.58582 1.6261 9.93589 1.6261 11.6013C1.6261 13.2667 2.97617 14.6167 4.64156 14.6167Z" stroke="black" stroke-width="2.01031" stroke-linecap="round" stroke-linejoin="round"/>
<path d="M16.7034 21.6528C18.3688 21.6528 19.7189 20.3027 19.7189 18.6374C19.7189 16.972 18.3688 15.6219 16.7034 15.6219C15.038 15.6219 13.688 16.972 13.688 18.6374C13.688 20.3027 15.038 21.6528 16.7034 21.6528Z" stroke="black" stroke-width="2.01031" stroke-linecap="round" stroke-linejoin="round"/>
<path d="M7.24477 13.1191L14.11 17.1197" stroke="black" stroke-width="2.01031" stroke-linecap="round" stroke-linejoin="round"/>
<path d="M14.0999 6.08301L7.24477 10.0835" stroke="black" stroke-width="2.01031" stroke-linecap="round" stroke-linejoin="round"/>
</svg>
