<svg width="15" height="23" viewBox="0 0 15 23" fill="none" xmlns="http://www.w3.org/2000/svg">
<path d="M11.697 7.26118C12.8035 7.26118 13.7006 5.94067 13.7006 4.31174C13.7006 2.68281 12.8035 1.3623 11.697 1.3623C10.5904 1.3623 9.69336 2.68281 9.69336 4.31174C9.69336 5.94067 10.5904 7.26118 11.697 7.26118Z" stroke="#34CC54" stroke-width="2.01031" stroke-linecap="round" stroke-linejoin="round"/>
<path d="M3.68232 14.143C4.78889 14.143 5.68594 12.8225 5.68594 11.1936C5.68594 9.56465 4.78889 8.24414 3.68232 8.24414C2.57576 8.24414 1.67871 9.56465 1.67871 11.1936C1.67871 12.8225 2.57576 14.143 3.68232 14.143Z" stroke="#34CC54" stroke-width="2.01031" stroke-linecap="round" stroke-linejoin="round"/>
<path d="M11.697 21.0253C12.8035 21.0253 13.7006 19.7048 13.7006 18.0759C13.7006 16.447 12.8035 15.1265 11.697 15.1265C10.5904 15.1265 9.69336 16.447 9.69336 18.0759C9.69336 19.7048 10.5904 21.0253 11.697 21.0253Z" stroke="#34CC54" stroke-width="2.01031" stroke-linecap="round" stroke-linejoin="round"/>
<path d="M5.41211 12.6782L9.97367 16.5911" stroke="#34CC54" stroke-width="2.01031" stroke-linecap="round" stroke-linejoin="round"/>
<path d="M9.96699 5.79639L5.41211 9.70931" stroke="#34CC54" stroke-width="2.01031" stroke-linecap="round" stroke-linejoin="round"/>
</svg>
