<svg width="50" height="50" viewBox="0 0 50 50" fill="none" xmlns="http://www.w3.org/2000/svg">
<path d="M23.1022 14.8469H27.1634V18.9081H23.1022V14.8469ZM23.1022 22.9694H27.1634V35.153H23.1022V22.9694ZM25.1328 4.69385C13.9238 4.69385 4.82666 13.791 4.82666 25C4.82666 36.209 13.9238 45.3061 25.1328 45.3061C36.3418 45.3061 45.4389 36.209 45.4389 25C45.4389 13.791 36.3418 4.69385 25.1328 4.69385ZM25.1328 41.2449C16.1778 41.2449 8.88789 33.955 8.88789 25C8.88789 16.045 16.1778 8.75507 25.1328 8.75507C34.0878 8.75507 41.3777 16.045 41.3777 25C41.3777 33.955 34.0878 41.2449 25.1328 41.2449Z" fill="#5F6368"/>
</svg>
