<svg width="49" height="50" viewBox="0 0 49 50" fill="none" xmlns="http://www.w3.org/2000/svg">
<path d="M10.3954 39.2372C10.9002 39.2372 11.3592 39.0689 11.9711 38.717L19.4057 34.7091L27.5134 39.2525C28.1559 39.6043 28.829 39.7726 29.4868 39.7726C30.1293 39.7726 30.7565 39.6196 31.3225 39.2831L38.9254 34.9997C39.9809 34.4031 40.4399 33.5618 40.4399 32.3991V11.8545C40.4399 10.5542 39.6597 9.77402 38.3747 9.77402C37.8699 9.77402 37.4109 9.97289 36.7837 10.3094L29.0738 14.5928L21.0578 9.75873C20.4765 9.42218 19.8493 9.25391 19.2068 9.25391C18.5796 9.25391 17.9524 9.40688 17.4017 9.72813L9.8447 14.0268C8.78917 14.6234 8.31494 15.4341 8.31494 16.5967V37.172C8.31494 38.4723 9.09512 39.2372 10.3954 39.2372ZM18.0289 31.9708L11.7416 35.4281C11.6345 35.474 11.5427 35.5199 11.4662 35.5199C11.2827 35.5199 11.1909 35.3822 11.1909 35.168V17.3922C11.1909 16.9639 11.3439 16.6885 11.7416 16.4591L17.5241 13.1089C17.6924 13.0018 17.8453 12.9253 18.0289 12.8335V31.9708ZM20.9354 32.0473V13.2007C21.0884 13.2772 21.2567 13.369 21.4097 13.4607L27.8194 17.331V35.9023C27.6205 35.7952 27.4216 35.6881 27.2075 35.5657L20.9354 32.0473ZM30.7412 36.1165V17.0404L37.0285 13.6137C37.105 13.5678 37.1968 13.5372 37.2733 13.5372C37.4568 13.5372 37.5792 13.6749 37.5792 13.8738V31.5578C37.5792 32.0014 37.4262 32.2768 37.0132 32.5062L31.4449 35.734C31.2154 35.8717 30.9707 36.0094 30.7412 36.1165Z" fill="url(#paint0_linear_70_115)"/>
<defs>
<linearGradient id="paint0_linear_70_115" x1="19.0232" y1="9.25391" x2="34.1172" y2="37.3841" gradientUnits="userSpaceOnUse">
<stop stop-color="#35DCBA"/>
<stop offset="1" stop-color="#E0FFF9" stop-opacity="0.56"/>
</linearGradient>
</defs>
</svg>
