<svg width="1604" height="851" viewBox="0 0 1604 851" fill="none" xmlns="http://www.w3.org/2000/svg">
<g filter="url(#filter0_d_46_2130)">
<path d="M865.523 348.788L793.267 460.858L937.779 481.093L1014.29 379.918M404.358 616.511C409.459 612.775 448.987 563.07 468.114 538.684L572.248 577.597L529.744 636.745L372.48 577.597M164.47 628.963L289.856 549.58L192.097 501.328L107.09 541.549L164.47 593.163L249.477 663.207L447.119 474.867L370.613 446.849L440.744 383.031M1347.94 597.832L1411.7 527.788L1360.69 505.997L1415.95 442.179M1568.96 488.875L1411.7 429.727M1014.29 274.074L1046.52 230.491M1014.29 274.074C997.284 339.448 1049.45 325.564 1033.41 323.883M1014.29 274.074L1201.3 348.788M1046.52 230.491L1097.17 162.004M1046.52 230.491L1097.17 247.613L1148.17 181.46M1097.17 162.004L1024.91 144.882L1061.04 93.5166M1097.17 162.004L1148.17 181.46M1097.17 42.1511L1061.04 93.5166M1061.04 93.5166L1190.68 132.43L1148.17 181.46M831.52 711.459L918.653 784.616L978.158 801.738L949.822 832.868L903.776 820.416L888.9 842.208M1450.66 663.207L1537.79 736.363L1597.29 753.485L1568.96 784.616L1522.91 772.164L1508.04 793.955M338.735 33.3546L344.267 32.2254M344.267 32.2254L468.371 6.8936M344.267 32.2254L398.24 137.642M344.267 32.2254L328.109 0.667479M587.381 229.477L608.633 206.129M608.633 206.129L625.635 187.451L600.133 143.868L906.739 77.7157M608.633 206.129L765.897 274.617M906.739 77.7157L863.655 126.747M906.739 77.7157L949.822 28.685M587.381 252.825L538.502 315.087M863.655 126.747L942.287 159.434M863.655 126.747L793.524 212.356M706.392 206.129L863.655 274.617M417.367 137.642L468.371 122.077M387.614 104.955L489.623 77.7157L600.133 87.8332L600.133 57.8818M608.633 58.2591L600.133 57.8818M600.133 57.8818L538.502 55.1461M782.898 374.235C696.841 353.628 653.373 321.232 549.128 379.918M107.09 274.617L285.605 327.539M5.08106 115.851L26.3329 143.868L417.367 159.434" stroke="#256558" stroke-opacity="0.87" stroke-width="2"/>
</g>
<defs>
<filter id="filter0_d_46_2130" x="0.28418" y="0.21167" width="1602.83" height="850.56" filterUnits="userSpaceOnUse" color-interpolation-filters="sRGB">
<feFlood flood-opacity="0" result="BackgroundImageFix"/>
<feColorMatrix in="SourceAlpha" type="matrix" values="0 0 0 0 0 0 0 0 0 0 0 0 0 0 0 0 0 0 127 0" result="hardAlpha"/>
<feOffset dy="4"/>
<feGaussianBlur stdDeviation="2"/>
<feColorMatrix type="matrix" values="0 0 0 0 0 0 0 0 0 0 0 0 0 0 0 0 0 0 0.25 0"/>
<feBlend mode="normal" in2="BackgroundImageFix" result="effect1_dropShadow_46_2130"/>
<feBlend mode="normal" in="SourceGraphic" in2="effect1_dropShadow_46_2130" result="shape"/>
</filter>
</defs>
</svg>
