<svg width="1732" height="1098" viewBox="0 0 1732 1098" fill="none" xmlns="http://www.w3.org/2000/svg">
<path d="M1312.28 642.073C1298.95 627.371 1279.87 595.929 1271.17 586.253M1271.17 586.253C1233.78 606.614 1184.75 631.73 1123.6 653.405C1062.44 675.081 1049.96 680.508 1025.89 683.159C969.625 692.755 965.059 692.593 952.385 693.235M1271.17 586.253L1178.6 496.399M952.385 693.235C946.213 694.409 676.636 851.483 676.636 851.483L466.057 976.398L410.187 998.471M952.385 693.235C949.619 652.412 968.666 619.797 993.742 575.012M354.317 1020.54L244.671 1000.65L178.149 970.043L116.034 947.806L230.986 853.085L281.571 795.173L300.811 771.137M354.317 1020.54L410.187 998.471M354.317 1020.54L405.85 1057.08M300.811 771.137L453.655 825.797L550.003 796.581L574.055 750.416M300.811 771.137L8.27537 619.958L3.55211 580.104L56.3006 525.13M300.811 771.137L377.956 614.234M574.055 750.416L617.661 733.188L789.358 665.354C802.695 659.37 866.003 620.249 891.08 609.995C916.156 599.741 927.569 592.413 996.006 568.541M574.055 750.416L675.197 539.01M996.006 568.541L1178.6 496.399M996.006 568.541L993.742 575.012M1178.6 496.399C1155.04 493.067 1049.24 464.068 1049.24 464.068M1178.6 496.399L1325.57 172.846M1049.24 464.068L993.742 575.012M1049.24 464.068L957.547 439.612M749.322 384.075L675.197 539.01M749.322 384.075L822.523 235.052M749.322 384.075L899.282 424.072M749.322 384.075L634.227 355.589L519.131 327.103M519.131 327.103L445.072 477.729M519.131 327.103L191.638 247.89M519.131 327.103L594.978 174.507M675.197 539.01L445.072 477.729M445.072 477.729L377.956 614.234M445.072 477.729L126.693 396.18M56.3006 525.13L377.956 614.234M56.3006 525.13L126.693 396.18M126.693 396.18L191.638 247.89M191.638 247.89L308.924 96.6212L594.978 174.507M594.978 174.507L822.523 235.052M594.978 174.507L659.524 13.7324M822.523 235.052L974.007 268.758M822.523 235.052L869.195 76.2829M974.007 268.758L899.282 424.072M974.007 268.758L1015.04 279.094M899.282 424.072L957.547 439.612M957.547 439.612L1015.04 279.094M1015.04 279.094L1075.02 126.446M1075.02 126.446L869.195 76.2829M1075.02 126.446L1325.57 172.846M869.195 76.2829L659.524 13.7324M659.524 13.7324L601.896 2.36569M1325.57 172.846L1392.72 51.4988L1596.26 93.7157L1529.03 236.585M1322.7 644.278C1220.87 685.928 1170.49 705.706 1088.32 736.877L740.663 955.139L539.54 1095.28L405.85 1057.08M405.85 1057.08L410.187 998.471M1282.62 460.88L1695.61 374.317L1728.24 294.42L1529.03 236.585M1455.25 215.165L1529.03 236.585" stroke="#256558" stroke-opacity="0.87" stroke-width="5"/>
</svg>
