<svg width="51" height="145" viewBox="0 0 51 145" fill="none" xmlns="http://www.w3.org/2000/svg">
<path d="M25.5004 101.604C11.4158 101.604 -0.00195308 108.643 -0.00195303 117.326C-0.001953 121.131 2.18985 124.62 5.83744 127.339L25.5004 144.259L45.1633 127.339C48.8109 124.62 51.0027 121.131 51.0027 117.326C51.0027 108.643 39.5849 101.604 25.5004 101.604Z" fill="white"/>
<ellipse cx="25.5014" cy="116.916" rx="11.4321" ry="6.56232" fill="#256558" fill-opacity="0.87"/>
<ellipse cx="25.501" cy="57.1994" rx="5.10017" ry="3.17179" fill="white"/>
<ellipse cx="25.501" cy="73.0583" rx="5.10017" ry="3.17179" fill="white"/>
<ellipse cx="25.501" cy="88.9174" rx="5.10017" ry="3.17179" fill="white"/>
<ellipse cx="25.501" cy="41.3402" rx="5.10017" ry="3.17179" fill="white"/>
<ellipse cx="25.501" cy="57.1994" rx="5.10017" ry="3.17179" fill="white"/>
<ellipse cx="25.501" cy="73.0583" rx="5.10017" ry="3.17179" fill="white"/>
<ellipse cx="25.5009" cy="15.9655" rx="8.50085" ry="5.28632" fill="white"/>
<path d="M50.5027 15.9659C50.5027 20.1094 47.8004 23.9374 43.2692 26.7553C38.7453 29.5685 32.4644 31.3248 25.5004 31.3248C18.5364 31.3248 12.2554 29.5685 7.73154 26.7553C3.2003 23.9374 0.498047 20.1094 0.498047 15.9659C0.498047 11.8224 3.2003 7.99432 7.73154 5.17651C12.2554 2.36328 18.5364 0.606934 25.5004 0.606934C32.4644 0.606934 38.7453 2.36328 43.2692 5.17651C47.8004 7.99432 50.5027 11.8224 50.5027 15.9659Z" stroke="white"/>
</svg>
