<svg width="80" height="80" viewBox="0 0 80 80" fill="none" xmlns="http://www.w3.org/2000/svg">
<path d="M13.333 40.0001C13.333 40.8841 13.6842 41.732 14.3093 42.3571C14.9344 42.9822 15.7823 43.3334 16.6663 43.3334H41.9663L34.2997 50.9667C33.9872 51.2766 33.7393 51.6453 33.57 52.0515C33.4008 52.4577 33.3137 52.8934 33.3137 53.3334C33.3137 53.7735 33.4008 54.2091 33.57 54.6153C33.7393 55.0215 33.9872 55.3902 34.2997 55.7001C34.6096 56.0125 34.9782 56.2605 35.3844 56.4297C35.7906 56.5989 36.2263 56.6861 36.6663 56.6861C37.1064 56.6861 37.5421 56.5989 37.9483 56.4297C38.3545 56.2605 38.7231 56.0125 39.033 55.7001L52.3663 42.3667C52.6698 42.0497 52.9077 41.6759 53.0663 41.2667C53.3997 40.4552 53.3997 39.545 53.0663 38.7334C52.9077 38.3242 52.6698 37.9504 52.3663 37.6334L39.033 24.3001C38.7222 23.9893 38.3532 23.7428 37.9472 23.5745C37.5411 23.4063 37.1059 23.3198 36.6663 23.3198C36.2268 23.3198 35.7916 23.4063 35.3855 23.5745C34.9794 23.7428 34.6105 23.9893 34.2997 24.3001C33.9889 24.6109 33.7423 24.9798 33.5741 25.3859C33.4059 25.792 33.3194 26.2272 33.3194 26.6667C33.3194 27.1063 33.4059 27.5415 33.5741 27.9476C33.7423 28.3537 33.9889 28.7226 34.2997 29.0334L41.9663 36.6667H16.6663C15.7823 36.6667 14.9344 37.0179 14.3093 37.6431C13.6842 38.2682 13.333 39.116 13.333 40.0001ZM56.6663 6.66675H23.333C20.6808 6.66675 18.1373 7.72032 16.2619 9.59568C14.3866 11.471 13.333 14.0146 13.333 16.6667V26.6667C13.333 27.5508 13.6842 28.3986 14.3093 29.0238C14.9344 29.6489 15.7823 30.0001 16.6663 30.0001C17.5504 30.0001 18.3982 29.6489 19.0234 29.0238C19.6485 28.3986 19.9997 27.5508 19.9997 26.6667V16.6667C19.9997 15.7827 20.3509 14.9348 20.976 14.3097C21.6011 13.6846 22.449 13.3334 23.333 13.3334H56.6663C57.5504 13.3334 58.3982 13.6846 59.0234 14.3097C59.6485 14.9348 59.9997 15.7827 59.9997 16.6667V63.3334C59.9997 64.2175 59.6485 65.0653 59.0234 65.6904C58.3982 66.3156 57.5504 66.6667 56.6663 66.6667H23.333C22.449 66.6667 21.6011 66.3156 20.976 65.6904C20.3509 65.0653 19.9997 64.2175 19.9997 63.3334V53.3334C19.9997 52.4494 19.6485 51.6015 19.0234 50.9764C18.3982 50.3513 17.5504 50.0001 16.6663 50.0001C15.7823 50.0001 14.9344 50.3513 14.3093 50.9764C13.6842 51.6015 13.333 52.4494 13.333 53.3334V63.3334C13.333 65.9856 14.3866 68.5291 16.2619 70.4045C18.1373 72.2798 20.6808 73.3334 23.333 73.3334H56.6663C59.3185 73.3334 61.862 72.2798 63.7374 70.4045C65.6128 68.5291 66.6663 65.9856 66.6663 63.3334V16.6667C66.6663 14.0146 65.6128 11.471 63.7374 9.59568C61.862 7.72032 59.3185 6.66675 56.6663 6.66675Z" fill="black"/>
</svg>
