<svg width="60" height="60" viewBox="0 0 60 60" fill="none" xmlns="http://www.w3.org/2000/svg">
<path d="M10 30C10 30.663 10.2634 31.2989 10.7322 31.7678C11.2011 32.2366 11.837 32.5 12.5 32.5H31.475L25.725 38.225C25.4907 38.4574 25.3047 38.7339 25.1778 39.0386C25.0508 39.3432 24.9855 39.67 24.9855 40C24.9855 40.33 25.0508 40.6568 25.1778 40.9614C25.3047 41.2661 25.4907 41.5426 25.725 41.775C25.9574 42.0093 26.2339 42.1953 26.5386 42.3222C26.8432 42.4492 27.17 42.5145 27.5 42.5145C27.83 42.5145 28.1568 42.4492 28.4614 42.3222C28.7661 42.1953 29.0426 42.0093 29.275 41.775L39.275 31.775C39.5026 31.5372 39.681 31.2569 39.8 30.95C40.05 30.3413 40.05 29.6587 39.8 29.05C39.681 28.7431 39.5026 28.4628 39.275 28.225L29.275 18.225C29.0419 17.9919 28.7652 17.807 28.4606 17.6809C28.1561 17.5547 27.8296 17.4898 27.5 17.4898C27.1704 17.4898 26.8439 17.5547 26.5394 17.6809C26.2348 17.807 25.9581 17.9919 25.725 18.225C25.4919 18.4581 25.307 18.7348 25.1809 19.0394C25.0547 19.3439 24.9898 19.6704 24.9898 20C24.9898 20.3296 25.0547 20.6561 25.1809 20.9606C25.307 21.2652 25.4919 21.5419 25.725 21.775L31.475 27.5H12.5C11.837 27.5 11.2011 27.7634 10.7322 28.2322C10.2634 28.7011 10 29.337 10 30ZM42.5 5H17.5C15.5109 5 13.6032 5.79018 12.1967 7.1967C10.7902 8.60322 10 10.5109 10 12.5V20C10 20.663 10.2634 21.2989 10.7322 21.7678C11.2011 22.2366 11.837 22.5 12.5 22.5C13.163 22.5 13.7989 22.2366 14.2678 21.7678C14.7366 21.2989 15 20.663 15 20V12.5C15 11.837 15.2634 11.2011 15.7322 10.7322C16.2011 10.2634 16.837 10 17.5 10H42.5C43.163 10 43.7989 10.2634 44.2678 10.7322C44.7366 11.2011 45 11.837 45 12.5V47.5C45 48.163 44.7366 48.7989 44.2678 49.2678C43.7989 49.7366 43.163 50 42.5 50H17.5C16.837 50 16.2011 49.7366 15.7322 49.2678C15.2634 48.7989 15 48.163 15 47.5V40C15 39.337 14.7366 38.7011 14.2678 38.2322C13.7989 37.7634 13.163 37.5 12.5 37.5C11.837 37.5 11.2011 37.7634 10.7322 38.2322C10.2634 38.7011 10 39.337 10 40V47.5C10 49.4891 10.7902 51.3968 12.1967 52.8033C13.6032 54.2098 15.5109 55 17.5 55H42.5C44.4891 55 46.3968 54.2098 47.8033 52.8033C49.2098 51.3968 50 49.4891 50 47.5V12.5C50 10.5109 49.2098 8.60322 47.8033 7.1967C46.3968 5.79018 44.4891 5 42.5 5Z" fill="black"/>
</svg>
