<svg width="23" height="22" viewBox="0 0 23 22" fill="none" xmlns="http://www.w3.org/2000/svg">
<path d="M21.8669 10.4181C21.8708 11.8072 21.5219 13.1775 20.8485 14.4174C20.0501 15.9032 18.8228 17.1529 17.3039 18.0266C15.785 18.9002 14.0346 19.3633 12.2488 19.364C10.7553 19.3676 9.28196 19.043 7.94886 18.4168L1.49902 20.4164L3.64897 14.4174C2.97562 13.1775 2.62668 11.8072 2.63057 10.4181C2.63126 8.75705 3.12915 7.129 4.06846 5.71628C5.00776 4.30357 6.3514 3.16199 7.94886 2.41941C9.28196 1.79312 10.7553 1.46858 12.2488 1.4722H12.8145C15.1731 1.59322 17.4007 2.51914 19.071 4.07267C20.7413 5.6262 21.7368 7.69817 21.8669 9.89185V10.4181Z" stroke="#34CC54" stroke-width="2.10491" stroke-linecap="round" stroke-linejoin="round"/>
</svg>
