<svg width="60" height="60" viewBox="0 0 60 60" fill="none" xmlns="http://www.w3.org/2000/svg">
<path d="M48 48C49.5913 48 51.1174 48.6321 52.2426 49.7574C53.3679 50.8826 54 52.4087 54 54C54 55.5913 53.3679 57.1174 52.2426 58.2426C51.1174 59.3679 49.5913 60 48 60C46.4087 60 44.8826 59.3679 43.7574 58.2426C42.6321 57.1174 42 55.5913 42 54C42 50.67 44.67 48 48 48ZM0 0H9.81L12.63 6H57C57.7956 6 58.5587 6.31607 59.1213 6.87868C59.6839 7.44129 60 8.20435 60 9C60 9.51 59.85 10.02 59.64 10.5L48.9 29.91C47.88 31.74 45.9 33 43.65 33H21.3L18.6 37.89L18.51 38.25C18.51 38.4489 18.589 38.6397 18.7297 38.7803C18.8703 38.921 19.0611 39 19.26 39H54V45H18C16.4087 45 14.8826 44.3679 13.7574 43.2426C12.6321 42.1174 12 40.5913 12 39C12 37.95 12.27 36.96 12.72 36.12L16.8 28.77L6 6H0V0ZM18 48C19.5913 48 21.1174 48.6321 22.2426 49.7574C23.3679 50.8826 24 52.4087 24 54C24 55.5913 23.3679 57.1174 22.2426 58.2426C21.1174 59.3679 19.5913 60 18 60C16.4087 60 14.8826 59.3679 13.7574 58.2426C12.6321 57.1174 12 55.5913 12 54C12 50.67 14.67 48 18 48ZM45 27L53.34 12H15.42L22.5 27H45Z" fill="black"/>
</svg>
